<?xml version="1.0" encoding="UTF-8" standalone="no"?>
<!-- Created with Inkscape (http://www.inkscape.org/) -->

<svg
   xmlns:dc="http://purl.org/dc/elements/1.1/"
   xmlns:cc="http://creativecommons.org/ns#"
   xmlns:rdf="http://www.w3.org/1999/02/22-rdf-syntax-ns#"
   xmlns:svg="http://www.w3.org/2000/svg"
   xmlns="http://www.w3.org/2000/svg"
   xmlns:sodipodi="http://sodipodi.sourceforge.net/DTD/sodipodi-0.dtd"
   xmlns:inkscape="http://www.inkscape.org/namespaces/inkscape"
   width="744.09448819"
   height="1052.3622047"
   id="svg2"
   version="1.1"
   inkscape:version="0.48.4 r9939"
   sodipodi:docname="New document 1">
  <defs
     id="defs4" />
  <sodipodi:namedview
     id="base"
     pagecolor="#ffffff"
     bordercolor="#666666"
     borderopacity="1.0"
     inkscape:pageopacity="0.0"
     inkscape:pageshadow="2"
     inkscape:zoom="0.70710678"
     inkscape:cx="475.36822"
     inkscape:cy="351.61162"
     inkscape:document-units="px"
     inkscape:current-layer="layer1"
     showgrid="false"
     showguides="true"
     inkscape:guide-bbox="true"
     inkscape:window-width="1366"
     inkscape:window-height="721"
     inkscape:window-x="-2"
     inkscape:window-y="-3"
     inkscape:window-maximized="1" />
  <metadata
     id="metadata7">
    <rdf:RDF>
      <cc:Work
         rdf:about="">
        <dc:format>image/svg+xml</dc:format>
        <dc:type
           rdf:resource="http://purl.org/dc/dcmitype/StillImage" />
        <dc:title></dc:title>
      </cc:Work>
    </rdf:RDF>
  </metadata>
  <g
     inkscape:label="Layer 1"
     inkscape:groupmode="layer"
     id="layer1">
    <g
       id="g3014"
       transform="matrix(0.99966049,0,0,1.0010852,-38.170802,444.81867)">
      <rect
         y="262.25891"
         x="38.183765"
         height="344.62601"
         width="344.62601"
         id="rect3012"
         style="fill:none;stroke:none" />
      <path
         transform="translate(57.982756,-149.07822)"
         inkscape:transform-center-x="-14.647911"
         d="M 256.33241,742.59656 C 246.14714,749.9961 165.58717,670.6855 152.99777,670.6851 140.40836,670.6847 59.843346,749.99018 49.65854,742.58999 39.473734,735.1898 90.008195,634.06439 86.118237,622.09104 82.228278,610.11768 -18.091667,558.00253 -14.200947,546.02942 c 3.89072,-11.97311 115.682707,4.83855 125.867977,-2.56099 10.18528,-7.39954 28.74916,-118.91394 41.33856,-118.91354 12.5894,4e-4 31.14619,111.51598 41.33099,118.91617 10.18481,7.40019 121.97786,-9.40436 125.86782,2.569 3.88996,11.97336 -96.4333,64.08212 -100.32402,76.05523 -3.89072,11.97311 46.63731,113.10173 36.45203,120.50127 z"
         inkscape:randomized="0"
         inkscape:rounded="0.1"
         inkscape:flatsided="false"
         sodipodi:arg2="1.5708281"
         sodipodi:arg1="0.9425096"
         sodipodi:r2="70.322922"
         sodipodi:r1="175.8073"
         sodipodi:cy="600.36218"
         sodipodi:cx="153"
         sodipodi:sides="5"
         id="path2991"
         style="fill:#e3e9e3;fill-opacity:1;stroke:#a6aca9;stroke-width:10;stroke-opacity:1"
         sodipodi:type="star" />
    </g>
    <g
       transform="matrix(0.99966049,0,0,1.0010852,306.8292,444.81867)"
       id="g3018">
      <rect
         style="fill:none;stroke:none"
         id="rect3020"
         width="344.62601"
         height="344.62601"
         x="38.183765"
         y="262.25891" />
      <path
         sodipodi:type="star"
         style="fill:#fffc8b;fill-opacity:1;stroke:#a6aca9;stroke-width:10;stroke-opacity:1"
         id="path3022"
         sodipodi:sides="5"
         sodipodi:cx="153"
         sodipodi:cy="600.36218"
         sodipodi:r1="175.8073"
         sodipodi:r2="70.322922"
         sodipodi:arg1="0.9425096"
         sodipodi:arg2="1.5708281"
         inkscape:flatsided="false"
         inkscape:rounded="0.1"
         inkscape:randomized="0"
         d="M 256.33241,742.59656 C 246.14714,749.9961 165.58717,670.6855 152.99777,670.6851 140.40836,670.6847 59.843346,749.99018 49.65854,742.58999 39.473734,735.1898 90.008195,634.06439 86.118237,622.09104 82.228278,610.11768 -18.091667,558.00253 -14.200947,546.02942 c 3.89072,-11.97311 115.682707,4.83855 125.867977,-2.56099 10.18528,-7.39954 28.74916,-118.91394 41.33856,-118.91354 12.5894,4e-4 31.14619,111.51598 41.33099,118.91617 10.18481,7.40019 121.97786,-9.40436 125.86782,2.569 3.88996,11.97336 -96.4333,64.08212 -100.32402,76.05523 -3.89072,11.97311 46.63731,113.10173 36.45203,120.50127 z"
         inkscape:transform-center-x="-14.647911"
         transform="translate(57.982756,-149.07822)" />
    </g>
    <g
       transform="matrix(0.16805887,0,0,0.16829838,-6.4171208,578.28627)"
       id="g3035"
       inkscape:export-filename="/home/tom/Projects/Platinum/Platinum-android/res/drawable-xhdpi/btn_star_off.png"
       inkscape:export-xdpi="90"
       inkscape:export-ydpi="90">
      <rect
         style="fill:none;stroke:none"
         id="rect3037"
         width="344.62601"
         height="344.62601"
         x="38.183765"
         y="262.25891" />
      <path
         sodipodi:type="star"
         style="fill:#e3e9e3;fill-opacity:1;stroke:#a6aca9;stroke-width:10;stroke-opacity:1"
         id="path3039"
         sodipodi:sides="5"
         sodipodi:cx="153"
         sodipodi:cy="600.36218"
         sodipodi:r1="175.8073"
         sodipodi:r2="70.322922"
         sodipodi:arg1="0.9425096"
         sodipodi:arg2="1.5708281"
         inkscape:flatsided="false"
         inkscape:rounded="0.1"
         inkscape:randomized="0"
         d="M 256.33241,742.59656 C 246.14714,749.9961 165.58717,670.6855 152.99777,670.6851 140.40836,670.6847 59.843346,749.99018 49.65854,742.58999 39.473734,735.1898 90.008195,634.06439 86.118237,622.09104 82.228278,610.11768 -18.091667,558.00253 -14.200947,546.02942 c 3.89072,-11.97311 115.682707,4.83855 125.867977,-2.56099 10.18528,-7.39954 28.74916,-118.91394 41.33856,-118.91354 12.5894,4e-4 31.14619,111.51598 41.33099,118.91617 10.18481,7.40019 121.97786,-9.40436 125.86782,2.569 3.88996,11.97336 -96.4333,64.08212 -100.32402,76.05523 -3.89072,11.97311 46.63731,113.10173 36.45203,120.50127 z"
         inkscape:transform-center-x="-14.647911"
         transform="translate(57.982756,-149.07822)" />
    </g>
    <g
       id="g3041"
       transform="matrix(0.16805887,0,0,0.16829838,51.582881,578.28627)"
       inkscape:export-filename="/home/tom/Projects/Platinum/Platinum-android/res/drawable-xhdpi/btn_star_on.png"
       inkscape:export-xdpi="90"
       inkscape:export-ydpi="90">
      <rect
         y="262.25891"
         x="38.183765"
         height="344.62601"
         width="344.62601"
         id="rect3043"
         style="fill:none;stroke:none" />
      <path
         transform="translate(57.982756,-149.07822)"
         inkscape:transform-center-x="-14.647911"
         d="M 256.33241,742.59656 C 246.14714,749.9961 165.58717,670.6855 152.99777,670.6851 140.40836,670.6847 59.843346,749.99018 49.65854,742.58999 39.473734,735.1898 90.008195,634.06439 86.118237,622.09104 82.228278,610.11768 -18.091667,558.00253 -14.200947,546.02942 c 3.89072,-11.97311 115.682707,4.83855 125.867977,-2.56099 10.18528,-7.39954 28.74916,-118.91394 41.33856,-118.91354 12.5894,4e-4 31.14619,111.51598 41.33099,118.91617 10.18481,7.40019 121.97786,-9.40436 125.86782,2.569 3.88996,11.97336 -96.4333,64.08212 -100.32402,76.05523 -3.89072,11.97311 46.63731,113.10173 36.45203,120.50127 z"
         inkscape:randomized="0"
         inkscape:rounded="0.1"
         inkscape:flatsided="false"
         sodipodi:arg2="1.5708281"
         sodipodi:arg1="0.9425096"
         sodipodi:r2="70.322922"
         sodipodi:r1="175.8073"
         sodipodi:cy="600.36218"
         sodipodi:cx="153"
         sodipodi:sides="5"
         id="path3045"
         style="fill:#fffc8b;fill-opacity:1;stroke:#a6aca9;stroke-width:10;stroke-opacity:1"
         sodipodi:type="star" />
    </g>
    <g
       id="g3047"
       transform="matrix(0.12459537,0,0,0.12477294,-4.7575208,531.1621)"
       inkscape:export-filename="/home/tom/Projects/Platinum/Platinum-android/res/drawable-hdpi/btn_star_off.png"
       inkscape:export-xdpi="90"
       inkscape:export-ydpi="90">
      <rect
         y="262.25891"
         x="38.183765"
         height="344.62601"
         width="344.62601"
         id="rect3049"
         style="fill:none;stroke:none" />
      <path
         transform="translate(57.982756,-149.07822)"
         inkscape:transform-center-x="-14.647911"
         d="M 256.33241,742.59656 C 246.14714,749.9961 165.58717,670.6855 152.99777,670.6851 140.40836,670.6847 59.843346,749.99018 49.65854,742.58999 39.473734,735.1898 90.008195,634.06439 86.118237,622.09104 82.228278,610.11768 -18.091667,558.00253 -14.200947,546.02942 c 3.89072,-11.97311 115.682707,4.83855 125.867977,-2.56099 10.18528,-7.39954 28.74916,-118.91394 41.33856,-118.91354 12.5894,4e-4 31.14619,111.51598 41.33099,118.91617 10.18481,7.40019 121.97786,-9.40436 125.86782,2.569 3.88996,11.97336 -96.4333,64.08212 -100.32402,76.05523 -3.89072,11.97311 46.63731,113.10173 36.45203,120.50127 z"
         inkscape:randomized="0"
         inkscape:rounded="0.1"
         inkscape:flatsided="false"
         sodipodi:arg2="1.5708281"
         sodipodi:arg1="0.9425096"
         sodipodi:r2="70.322922"
         sodipodi:r1="175.8073"
         sodipodi:cy="600.36218"
         sodipodi:cx="153"
         sodipodi:sides="5"
         id="path3051"
         style="fill:#e3e9e3;fill-opacity:1;stroke:#a6aca9;stroke-width:10;stroke-opacity:1"
         sodipodi:type="star" />
    </g>
    <g
       transform="matrix(0.12459537,0,0,0.12477294,38.242481,531.1621)"
       id="g3053"
       inkscape:export-filename="/home/tom/Projects/Platinum/Platinum-android/res/drawable-hdpi/btn_star_on.png"
       inkscape:export-xdpi="90"
       inkscape:export-ydpi="90">
      <rect
         style="fill:none;stroke:none"
         id="rect3055"
         width="344.62601"
         height="344.62601"
         x="38.183765"
         y="262.25891" />
      <path
         sodipodi:type="star"
         style="fill:#fffc8b;fill-opacity:1;stroke:#a6aca9;stroke-width:10;stroke-opacity:1"
         id="path3057"
         sodipodi:sides="5"
         sodipodi:cx="153"
         sodipodi:cy="600.36218"
         sodipodi:r1="175.8073"
         sodipodi:r2="70.322922"
         sodipodi:arg1="0.9425096"
         sodipodi:arg2="1.5708281"
         inkscape:flatsided="false"
         inkscape:rounded="0.1"
         inkscape:randomized="0"
         d="M 256.33241,742.59656 C 246.14714,749.9961 165.58717,670.6855 152.99777,670.6851 140.40836,670.6847 59.843346,749.99018 49.65854,742.58999 39.473734,735.1898 90.008195,634.06439 86.118237,622.09104 82.228278,610.11768 -18.091667,558.00253 -14.200947,546.02942 c 3.89072,-11.97311 115.682707,4.83855 125.867977,-2.56099 10.18528,-7.39954 28.74916,-118.91394 41.33856,-118.91354 12.5894,4e-4 31.14619,111.51598 41.33099,118.91617 10.18481,7.40019 121.97786,-9.40436 125.86782,2.569 3.88996,11.97336 -96.4333,64.08212 -100.32402,76.05523 -3.89072,11.97311 46.63731,113.10173 36.45203,120.50127 z"
         inkscape:transform-center-x="-14.647911"
         transform="translate(57.982756,-149.07822)" />
    </g>
    <g
       transform="matrix(0.08402943,0,0,0.08414919,-3.2085607,499.24751)"
       id="g3059"
       inkscape:export-filename="/home/tom/Projects/Platinum/Platinum-android/res/drawable-mdpi/btn_star_off.png"
       inkscape:export-xdpi="90"
       inkscape:export-ydpi="90">
      <rect
         style="fill:none;stroke:none"
         id="rect3061"
         width="344.62601"
         height="344.62601"
         x="38.183765"
         y="262.25891" />
      <path
         sodipodi:type="star"
         style="fill:#e3e9e3;fill-opacity:1;stroke:#a6aca9;stroke-width:10;stroke-opacity:1"
         id="path3063"
         sodipodi:sides="5"
         sodipodi:cx="153"
         sodipodi:cy="600.36218"
         sodipodi:r1="175.8073"
         sodipodi:r2="70.322922"
         sodipodi:arg1="0.9425096"
         sodipodi:arg2="1.5708281"
         inkscape:flatsided="false"
         inkscape:rounded="0.1"
         inkscape:randomized="0"
         d="M 256.33241,742.59656 C 246.14714,749.9961 165.58717,670.6855 152.99777,670.6851 140.40836,670.6847 59.843346,749.99018 49.65854,742.58999 39.473734,735.1898 90.008195,634.06439 86.118237,622.09104 82.228278,610.11768 -18.091667,558.00253 -14.200947,546.02942 c 3.89072,-11.97311 115.682707,4.83855 125.867977,-2.56099 10.18528,-7.39954 28.74916,-118.91394 41.33856,-118.91354 12.5894,4e-4 31.14619,111.51598 41.33099,118.91617 10.18481,7.40019 121.97786,-9.40436 125.86782,2.569 3.88996,11.97336 -96.4333,64.08212 -100.32402,76.05523 -3.89072,11.97311 46.63731,113.10173 36.45203,120.50127 z"
         inkscape:transform-center-x="-14.647911"
         transform="translate(57.982756,-149.07822)" />
    </g>
    <g
       id="g3065"
       transform="matrix(0.08402943,0,0,0.08414919,25.791441,499.24751)"
       inkscape:export-filename="/home/tom/Projects/Platinum/Platinum-android/res/drawable-mdpi/btn_star_on.png"
       inkscape:export-xdpi="90"
       inkscape:export-ydpi="90">
      <rect
         y="262.25891"
         x="38.183765"
         height="344.62601"
         width="344.62601"
         id="rect3067"
         style="fill:none;stroke:none" />
      <path
         transform="translate(57.982756,-149.07822)"
         inkscape:transform-center-x="-14.647911"
         d="M 256.33241,742.59656 C 246.14714,749.9961 165.58717,670.6855 152.99777,670.6851 140.40836,670.6847 59.843346,749.99018 49.65854,742.58999 39.473734,735.1898 90.008195,634.06439 86.118237,622.09104 82.228278,610.11768 -18.091667,558.00253 -14.200947,546.02942 c 3.89072,-11.97311 115.682707,4.83855 125.867977,-2.56099 10.18528,-7.39954 28.74916,-118.91394 41.33856,-118.91354 12.5894,4e-4 31.14619,111.51598 41.33099,118.91617 10.18481,7.40019 121.97786,-9.40436 125.86782,2.569 3.88996,11.97336 -96.4333,64.08212 -100.32402,76.05523 -3.89072,11.97311 46.63731,113.10173 36.45203,120.50127 z"
         inkscape:randomized="0"
         inkscape:rounded="0.1"
         inkscape:flatsided="false"
         sodipodi:arg2="1.5708281"
         sodipodi:arg1="0.9425096"
         sodipodi:r2="70.322922"
         sodipodi:r1="175.8073"
         sodipodi:cy="600.36218"
         sodipodi:cx="153"
         sodipodi:sides="5"
         id="path3069"
         style="fill:#fffc8b;fill-opacity:1;stroke:#a6aca9;stroke-width:10;stroke-opacity:1"
         sodipodi:type="star" />
    </g>
    <g
       id="g3071"
       transform="matrix(0.06374646,0,0,0.06383732,-2.4340806,467.73386)"
       inkscape:export-filename="/home/tom/Projects/Platinum/Platinum-android/res/drawable-ldpi/btn_star_off.png"
       inkscape:export-xdpi="90"
       inkscape:export-ydpi="90">
      <rect
         y="262.25891"
         x="38.183765"
         height="344.62601"
         width="344.62601"
         id="rect3073"
         style="fill:none;stroke:none" />
      <path
         transform="translate(57.982756,-149.07822)"
         inkscape:transform-center-x="-14.647911"
         d="M 256.33241,742.59656 C 246.14714,749.9961 165.58717,670.6855 152.99777,670.6851 140.40836,670.6847 59.843346,749.99018 49.65854,742.58999 39.473734,735.1898 90.008195,634.06439 86.118237,622.09104 82.228278,610.11768 -18.091667,558.00253 -14.200947,546.02942 c 3.89072,-11.97311 115.682707,4.83855 125.867977,-2.56099 10.18528,-7.39954 28.74916,-118.91394 41.33856,-118.91354 12.5894,4e-4 31.14619,111.51598 41.33099,118.91617 10.18481,7.40019 121.97786,-9.40436 125.86782,2.569 3.88996,11.97336 -96.4333,64.08212 -100.32402,76.05523 -3.89072,11.97311 46.63731,113.10173 36.45203,120.50127 z"
         inkscape:randomized="0"
         inkscape:rounded="0.1"
         inkscape:flatsided="false"
         sodipodi:arg2="1.5708281"
         sodipodi:arg1="0.9425096"
         sodipodi:r2="70.322922"
         sodipodi:r1="175.8073"
         sodipodi:cy="600.36218"
         sodipodi:cx="153"
         sodipodi:sides="5"
         id="path3075"
         style="fill:#e3e9e3;fill-opacity:1;stroke:#a6aca9;stroke-width:10;stroke-opacity:1"
         sodipodi:type="star" />
    </g>
    <g
       transform="matrix(0.06374646,0,0,0.06383732,19.56592,467.73386)"
       id="g3077"
       inkscape:export-filename="/home/tom/Projects/Platinum/Platinum-android/res/drawable-ldpi/btn_star_on.png"
       inkscape:export-xdpi="90"
       inkscape:export-ydpi="90">
      <rect
         style="fill:none;stroke:none"
         id="rect3079"
         width="344.62601"
         height="344.62601"
         x="38.183765"
         y="262.25891" />
      <path
         sodipodi:type="star"
         style="fill:#fffc8b;fill-opacity:1;stroke:#a6aca9;stroke-width:10;stroke-opacity:1"
         id="path3081"
         sodipodi:sides="5"
         sodipodi:cx="153"
         sodipodi:cy="600.36218"
         sodipodi:r1="175.8073"
         sodipodi:r2="70.322922"
         sodipodi:arg1="0.9425096"
         sodipodi:arg2="1.5708281"
         inkscape:flatsided="false"
         inkscape:rounded="0.1"
         inkscape:randomized="0"
         d="M 256.33241,742.59656 C 246.14714,749.9961 165.58717,670.6855 152.99777,670.6851 140.40836,670.6847 59.843346,749.99018 49.65854,742.58999 39.473734,735.1898 90.008195,634.06439 86.118237,622.09104 82.228278,610.11768 -18.091667,558.00253 -14.200947,546.02942 c 3.89072,-11.97311 115.682707,4.83855 125.867977,-2.56099 10.18528,-7.39954 28.74916,-118.91394 41.33856,-118.91354 12.5894,4e-4 31.14619,111.51598 41.33099,118.91617 10.18481,7.40019 121.97786,-9.40436 125.86782,2.569 3.88996,11.97336 -96.4333,64.08212 -100.32402,76.05523 -3.89072,11.97311 46.63731,113.10173 36.45203,120.50127 z"
         inkscape:transform-center-x="-14.647911"
         transform="translate(57.982756,-149.07822)" />
    </g>
  </g>
</svg>
